<?xml version="1.0" encoding="utf-8"?>
<!-- Generator: Adobe Illustrator 16.0.0, SVG Export Plug-In . SVG Version: 6.00 Build 0)  -->
<!DOCTYPE svg PUBLIC "-//W3C//DTD SVG 1.1//EN" "http://www.w3.org/Graphics/SVG/1.1/DTD/svg11.dtd">
<svg version="1.1" id="Layer_1" xmlns="http://www.w3.org/2000/svg" xmlns:xlink="http://www.w3.org/1999/xlink" x="0px" y="0px"
	 width="100px" height="75px" viewBox="0 0 100 75" enable-background="new 0 0 100 75" xml:space="preserve">
<rect fill="#FFFFFF" stroke="#000000" stroke-miterlimit="10" width="100" height="75"/>
<line fill="none" stroke="#000000" stroke-miterlimit="10" x1="74.875" y1="-0.125" x2="74.875" y2="74.875"/>
<g>
	<g>
		<g>
			
				<line fill="none" stroke="#000000" stroke-linecap="round" stroke-miterlimit="10" x1="52.938" y1="42.938" x2="49.813" y2="42.938"/>
			
				<line fill="none" stroke="#000000" stroke-linecap="round" stroke-miterlimit="10" x1="52.938" y1="39.813" x2="52.938" y2="42.938"/>
		</g>
		
			<line fill="none" stroke="#000000" stroke-linecap="round" stroke-miterlimit="10" x1="52.938" y1="42.938" x2="48.625" y2="38.625"/>
	</g>
	<g>
		<g>
			
				<line fill="none" stroke="#000000" stroke-linecap="round" stroke-miterlimit="10" x1="41.813" y1="31.813" x2="44.938" y2="31.813"/>
			
				<line fill="none" stroke="#000000" stroke-linecap="round" stroke-miterlimit="10" x1="41.813" y1="34.938" x2="41.813" y2="31.813"/>
		</g>
		
			<line fill="none" stroke="#000000" stroke-linecap="round" stroke-miterlimit="10" x1="46.125" y1="36.125" x2="41.813" y2="31.813"/>
	</g>
</g>
<text transform="matrix(1 0 0 1 21.8125 40.8965)" font-family="'MyriadPro-Regular'" font-size="12">SS</text>
<rect x="77.125" y="2.5" fill="none" stroke="#000000" stroke-linecap="round" stroke-miterlimit="10" width="20.625" height="7.625"/>
<rect x="77.125" y="13.125" fill="none" stroke="#000000" stroke-linecap="round" stroke-miterlimit="10" width="20.625" height="7.625"/>
<rect x="77.125" y="23.75" fill="none" stroke="#000000" stroke-linecap="round" stroke-miterlimit="10" width="20.625" height="7.625"/>
<rect x="77.125" y="34.375" fill="none" stroke="#000000" stroke-linecap="round" stroke-miterlimit="10" width="20.625" height="7.625"/>
<rect x="77.125" y="45" fill="none" stroke="#000000" stroke-linecap="round" stroke-miterlimit="10" width="20.625" height="7.625"/>
<line fill="none" stroke="#000000" stroke-linecap="round" stroke-miterlimit="10" x1="78.75" y1="4.5" x2="95.375" y2="4.5"/>
<line fill="none" stroke="#000000" stroke-linecap="round" stroke-miterlimit="10" x1="78.75" y1="7" x2="88.625" y2="7"/>
<line fill="none" stroke="#000000" stroke-linecap="round" stroke-miterlimit="10" x1="78.75" y1="15.125" x2="95.375" y2="15.125"/>
<line fill="none" stroke="#000000" stroke-linecap="round" stroke-miterlimit="10" x1="78.75" y1="17.625" x2="88.625" y2="17.625"/>
<line fill="none" stroke="#000000" stroke-linecap="round" stroke-miterlimit="10" x1="78.75" y1="25.75" x2="95.375" y2="25.75"/>
<line fill="none" stroke="#000000" stroke-linecap="round" stroke-miterlimit="10" x1="78.75" y1="28.25" x2="88.625" y2="28.25"/>
<line fill="none" stroke="#000000" stroke-linecap="round" stroke-miterlimit="10" x1="78.75" y1="36.375" x2="95.375" y2="36.375"/>
<line fill="none" stroke="#000000" stroke-linecap="round" stroke-miterlimit="10" x1="78.75" y1="38.875" x2="88.625" y2="38.875"/>
<line fill="none" stroke="#000000" stroke-linecap="round" stroke-miterlimit="10" x1="78.75" y1="47" x2="95.375" y2="47"/>
<line fill="none" stroke="#000000" stroke-linecap="round" stroke-miterlimit="10" x1="78.75" y1="49.5" x2="88.625" y2="49.5"/>
</svg>
